<svg xmlns="http://www.w3.org/2000/svg" width="1024" height="1024" viewBox="0 0 1024 1024" role="img" aria-label="Infinity ComfyUI icon">
  <defs>
    <linearGradient id="bg" x1="118" y1="96" x2="906" y2="928" gradientUnits="userSpaceOnUse">
      <stop stop-color="#f8fcff"/>
      <stop offset="1" stop-color="#dfecef"/>
    </linearGradient>
    <linearGradient id="loop" x1="198" y1="334" x2="826" y2="690" gradientUnits="userSpaceOnUse">
      <stop stop-color="#0f2a44"/>
      <stop offset="0.52" stop-color="#0b8f9b"/>
      <stop offset="1" stop-color="#0f2a44"/>
    </linearGradient>
    <filter id="shadow" x="-12%" y="-10%" width="124%" height="130%" color-interpolation-filters="sRGB">
      <feDropShadow dx="0" dy="26" stdDeviation="26" flood-color="#143044" flood-opacity="0.18"/>
    </filter>
  </defs>
  <rect x="64" y="64" width="896" height="896" rx="210" fill="url(#bg)"/>
  <path d="M210 706C262 580 360 455 512 512c152 57 250-68 302-194" fill="none" stroke="#ffffff" stroke-width="120" stroke-linecap="round" opacity="0.64"/>
  <g filter="url(#shadow)">
    <path d="M512 512c-118-150-263-178-333-82-62 85-7 214 108 214 74 0 139-54 225-132Zm0 0c118 150 263 178 333 82 62-85 7-214-108-214-74 0-139 54-225 132Z" fill="none" stroke="#0d2339" stroke-width="110" stroke-linecap="round" stroke-linejoin="round"/>
    <path d="M512 512c-118-150-263-178-333-82-62 85-7 214 108 214 74 0 139-54 225-132Zm0 0c118 150 263 178 333 82 62-85 7-214-108-214-74 0-139 54-225 132Z" fill="none" stroke="url(#loop)" stroke-width="72" stroke-linecap="round" stroke-linejoin="round"/>
  </g>
  <g fill="#f8fcff" stroke="#0d2339" stroke-width="18">
    <rect x="199" y="403" width="86" height="86" rx="22"/>
    <rect x="327" y="559" width="86" height="86" rx="22"/>
    <rect x="455" y="469" width="86" height="86" rx="22"/>
    <rect x="611" y="379" width="86" height="86" rx="22"/>
    <rect x="739" y="535" width="86" height="86" rx="22"/>
  </g>
  <g fill="#0b8f9b">
    <circle cx="242" cy="446" r="17"/>
    <circle cx="370" cy="602" r="17"/>
    <circle cx="498" cy="512" r="17"/>
    <circle cx="654" cy="422" r="17"/>
    <circle cx="782" cy="578" r="17"/>
  </g>
  <path d="M524 292l27 74 74 27-74 27-27 74-27-74-74-27 74-27 27-74Z" fill="#d99a27" stroke="#0d2339" stroke-width="16" stroke-linejoin="round"/>
  <circle cx="770" cy="290" r="38" fill="#d99a27"/>
  <circle cx="770" cy="290" r="18" fill="#0d2339"/>
</svg>
